HIERARCHY
ROOT mixamorig:Hips
{
	OFFSET 0.000000 201.639420 0.000000
	CHANNELS 6 Xposition Yposition Zposition Xrotation Yrotation Zrotation
	JOINT mixamorig:Spine
	{
		OFFSET 0.006200 19.524994 -2.481800
		CHANNELS 3 Xrotation Yrotation Zrotation
		JOINT mixamorig:Spine1
		{
			OFFSET -0.000900 22.835007 -2.825400
			CHANNELS 3 Xrotation Yrotation Zrotation
			JOINT mixamorig:Spine2
			{
				OFFSET -0.020600 26.552490 -3.193300
				CHANNELS 3 Xrotation Yrotation Zrotation
				JOINT mixamorig:Neck
				{
					OFFSET -0.060000 30.701813 1.352200
					CHANNELS 3 Xrotation Yrotation Zrotation
					JOINT mixamorig:Head
					{
						OFFSET -0.087200 22.547607 3.670900
						CHANNELS 3 Xrotation Yrotation Zrotation
						JOINT mixamorig:HeadTop_End
						{
							OFFSET -0.830600 40.355194 7.893500
							CHANNELS 3 Xrotation Yrotation Zrotation
							End Site
							{
								OFFSET 0.000000 30.592346 0.000000
							}
						}
						JOINT mixamorig:RightEye
						{
							OFFSET -6.302100 18.118591 16.197100
							CHANNELS 3 Xrotation Yrotation Zrotation
							End Site
							{
								OFFSET 0.000000 30.592346 0.000000
							}
						}
						JOINT mixamorig:LeftEye
						{
							OFFSET 6.741500 18.382690 16.401899
							CHANNELS 3 Xrotation Yrotation Zrotation
							End Site
							{
								OFFSET 0.000000 30.592346 0.000000
							}
						}
					}
				}
				JOINT mixamorig:LeftShoulder
				{
					OFFSET 11.924900 18.230499 1.425400
					CHANNELS 3 Xrotation Yrotation Zrotation
					JOINT mixamorig:LeftArm
					{
						OFFSET 25.435989 -0.697632 -5.229300
						CHANNELS 3 Xrotation Yrotation Zrotation
						JOINT mixamorig:LeftForeArm
						{
							OFFSET 54.684776 0.000000 0.000000
							CHANNELS 3 Xrotation Yrotation Zrotation
							JOINT mixamorig:LeftHand
							{
								OFFSET 55.098175 0.000000 0.000000
								CHANNELS 3 Xrotation Yrotation Zrotation
								JOINT mixamorig:LeftHandMiddle1
								{
									OFFSET 23.369751 0.000000 0.000000
									CHANNELS 3 Xrotation Yrotation Zrotation
									JOINT mixamorig:LeftHandMiddle2
									{
										OFFSET 6.378677 0.000000 0.000000
										CHANNELS 3 Xrotation Yrotation Zrotation
										JOINT mixamorig:LeftHandMiddle3
										{
											OFFSET 6.148331 0.000000 0.000000
											CHANNELS 3 Xrotation Yrotation Zrotation
											JOINT mixamorig:LeftHandMiddle4
											{
												OFFSET 6.582504 0.000000 0.000000
												CHANNELS 3 Xrotation Yrotation Zrotation
												End Site
												{
													OFFSET -1.168900 6.395691 1.028606
												}
											}
										}
									}
								}
								JOINT mixamorig:LeftHandThumb1
								{
									OFFSET 7.235672 -3.848206 5.434273
									CHANNELS 3 Xrotation Yrotation Zrotation
									JOINT mixamorig:LeftHandThumb2
									{
										OFFSET 6.568451 -3.792297 3.792300
										CHANNELS 3 Xrotation Yrotation Zrotation
										JOINT mixamorig:LeftHandThumb3
										{
											OFFSET 6.063080 -3.500519 3.500518
											CHANNELS 3 Xrotation Yrotation Zrotation
											JOINT mixamorig:LeftHandThumb4
											{
												OFFSET 4.793182 -2.767334 2.767349
												CHANNELS 3 Xrotation Yrotation Zrotation
												End Site
												{
													OFFSET 0.101639 6.054260 1.275483
												}
											}
										}
									}
								}
								JOINT mixamorig:LeftHandIndex1
								{
									OFFSET 23.101074 -0.309540 4.992809
									CHANNELS 3 Xrotation Yrotation Zrotation
									JOINT mixamorig:LeftHandIndex2
									{
										OFFSET 6.226883 0.000000 0.000000
										CHANNELS 3 Xrotation Yrotation Zrotation
										JOINT mixamorig:LeftHandIndex3
										{
											OFFSET 6.094330 0.000000 0.000000
											CHANNELS 3 Xrotation Yrotation Zrotation
											JOINT mixamorig:LeftHandIndex4
											{
												OFFSET 5.482605 0.000000 0.000000
												CHANNELS 3 Xrotation Yrotation Zrotation
												End Site
												{
													OFFSET -1.427902 5.233032 0.797164
												}
											}
										}
									}
								}
								JOINT mixamorig:LeftHandRing1
								{
									OFFSET 22.299240 0.021149 -3.964172
									CHANNELS 3 Xrotation Yrotation Zrotation
									JOINT mixamorig:LeftHandRing2
									{
										OFFSET 6.321869 0.000000 0.000000
										CHANNELS 3 Xrotation Yrotation Zrotation
										JOINT mixamorig:LeftHandRing3
										{
											OFFSET 5.899796 0.000000 0.000000
											CHANNELS 3 Xrotation Yrotation Zrotation
											JOINT mixamorig:LeftHandRing4
											{
												OFFSET 6.517899 0.000000 0.000000
												CHANNELS 3 Xrotation Yrotation Zrotation
												End Site
												{
													OFFSET -1.637299 6.232208 0.980890
												}
											}
										}
									}
								}
								JOINT mixamorig:LeftHandPinky1
								{
									OFFSET 20.463791 -0.302338 -8.562233
									CHANNELS 3 Xrotation Yrotation Zrotation
									JOINT mixamorig:LeftHandPinky2
									{
										OFFSET 6.908646 0.000000 0.000000
										CHANNELS 3 Xrotation Yrotation Zrotation
										JOINT mixamorig:LeftHandPinky3
										{
											OFFSET 4.622849 0.000000 0.000000
											CHANNELS 3 Xrotation Yrotation Zrotation
											JOINT mixamorig:LeftHandPinky4
											{
												OFFSET 5.216080 0.000000 0.000000
												CHANNELS 3 Xrotation Yrotation Zrotation
												End Site
												{
													OFFSET -0.606308 5.116241 0.814926
												}
											}
										}
									}
								}
							}
						}
					}
				}
				JOINT mixamorig:RightShoulder
				{
					OFFSET -12.001300 18.284088 1.348900
					CHANNELS 3 Xrotation Yrotation Zrotation
					JOINT mixamorig:RightArm
					{
						OFFSET -25.308500 -0.751312 -5.164599
						CHANNELS 3 Xrotation Yrotation Zrotation
						JOINT mixamorig:RightForeArm
						{
							OFFSET -54.684429 0.000000 0.000000
							CHANNELS 3 Xrotation Yrotation Zrotation
							JOINT mixamorig:RightHand
							{
								OFFSET -55.150291 0.000000 0.000000
								CHANNELS 3 Xrotation Yrotation Zrotation
								JOINT mixamorig:RightHandMiddle1
								{
									OFFSET -23.317566 0.000000 0.000000
									CHANNELS 3 Xrotation Yrotation Zrotation
									JOINT mixamorig:RightHandMiddle2
									{
										OFFSET -6.378403 0.000000 0.000000
										CHANNELS 3 Xrotation Yrotation Zrotation
										JOINT mixamorig:RightHandMiddle3
										{
											OFFSET -6.148193 0.000000 0.000000
											CHANNELS 3 Xrotation Yrotation Zrotation
											JOINT mixamorig:RightHandMiddle4
											{
												OFFSET -6.583389 0.000000 0.000000
												CHANNELS 3 Xrotation Yrotation Zrotation
												End Site
												{
													OFFSET 1.171692 6.395905 1.029786
												}
											}
										}
									}
								}
								JOINT mixamorig:RightHandThumb1
								{
									OFFSET -7.190521 -3.860474 5.435846
									CHANNELS 3 Xrotation Yrotation Zrotation
									JOINT mixamorig:RightHandThumb2
									{
										OFFSET -6.567429 -3.791718 3.791708
										CHANNELS 3 Xrotation Yrotation Zrotation
										JOINT mixamorig:RightHandThumb3
										{
											OFFSET -6.062469 -3.500153 3.500166
											CHANNELS 3 Xrotation Yrotation Zrotation
											JOINT mixamorig:RightHandThumb4
											{
												OFFSET -4.792618 -2.767029 2.767022
												CHANNELS 3 Xrotation Yrotation Zrotation
												End Site
												{
													OFFSET -0.100327 6.053253 1.276754
												}
											}
										}
									}
								}
								JOINT mixamorig:RightHandIndex1
								{
									OFFSET -23.048981 -0.310791 4.992554
									CHANNELS 3 Xrotation Yrotation Zrotation
									JOINT mixamorig:RightHandIndex2
									{
										OFFSET -6.227539 0.000000 0.000000
										CHANNELS 3 Xrotation Yrotation Zrotation
										JOINT mixamorig:RightHandIndex3
										{
											OFFSET -6.095047 0.000000 0.000000
											CHANNELS 3 Xrotation Yrotation Zrotation
											JOINT mixamorig:RightHandIndex4
											{
												OFFSET -5.484772 0.000000 0.000000
												CHANNELS 3 Xrotation Yrotation Zrotation
												End Site
												{
													OFFSET 1.420593 5.237305 0.797056
												}
											}
										}
									}
								}
								JOINT mixamorig:RightHandRing1
								{
									OFFSET -22.246323 0.020569 -3.963762
									CHANNELS 3 Xrotation Yrotation Zrotation
									JOINT mixamorig:RightHandRing2
									{
										OFFSET -6.322128 0.000000 0.000000
										CHANNELS 3 Xrotation Yrotation Zrotation
										JOINT mixamorig:RightHandRing3
										{
											OFFSET -5.900024 0.000000 0.000000
											CHANNELS 3 Xrotation Yrotation Zrotation
											JOINT mixamorig:RightHandRing4
											{
												OFFSET -6.518356 0.000000 0.000000
												CHANNELS 3 Xrotation Yrotation Zrotation
												End Site
												{
													OFFSET 1.636398 6.232697 0.982186
												}
											}
										}
									}
								}
								JOINT mixamorig:RightHandPinky1
								{
									OFFSET -20.411011 -0.303314 -8.561701
									CHANNELS 3 Xrotation Yrotation Zrotation
									JOINT mixamorig:RightHandPinky2
									{
										OFFSET -6.907349 0.000000 0.000000
										CHANNELS 3 Xrotation Yrotation Zrotation
										JOINT mixamorig:RightHandPinky3
										{
											OFFSET -4.623840 0.000000 0.000000
											CHANNELS 3 Xrotation Yrotation Zrotation
											JOINT mixamorig:RightHandPinky4
											{
												OFFSET -5.218353 0.000000 0.000000
												CHANNELS 3 Xrotation Yrotation Zrotation
												End Site
												{
													OFFSET 0.602097 5.118835 0.816273
												}
											}
										}
									}
								}
							}
						}
					}
				}
			}
		}
	}
	JOINT mixamorig:LeftUpLeg
	{
		OFFSET 18.168400 -13.561905 -0.039000
		CHANNELS 3 Xrotation Yrotation Zrotation
		JOINT mixamorig:LeftLeg
		{
			OFFSET 0.577358 -80.825211 -3.695000
			CHANNELS 3 Xrotation Yrotation Zrotation
			JOINT mixamorig:LeftFoot
			{
				OFFSET -0.577356 -83.370262 -6.520700
				CHANNELS 3 Xrotation Yrotation Zrotation
				JOINT mixamorig:LeftToeBase
				{
					OFFSET 0.750401 -20.798306 25.135401
					CHANNELS 3 Xrotation Yrotation Zrotation
					JOINT mixamorig:LeftToe_End
					{
						OFFSET -0.000500 0.001200 19.917799
						CHANNELS 3 Xrotation Yrotation Zrotation
						End Site
						{
							OFFSET 0.000000 19.917805 0.000000
						}
					}
				}
			}
		}
	}
	JOINT mixamorig:RightUpLeg
	{
		OFFSET -18.162500 -13.585098 -0.041000
		CHANNELS 3 Xrotation Yrotation Zrotation
		JOINT mixamorig:RightLeg
		{
			OFFSET -0.595024 -80.945297 -3.631900
			CHANNELS 3 Xrotation Yrotation Zrotation
			JOINT mixamorig:RightFoot
			{
				OFFSET 0.595024 -83.218193 -6.561200
				CHANNELS 3 Xrotation Yrotation Zrotation
				JOINT mixamorig:RightToeBase
				{
					OFFSET -0.753601 -20.807106 25.115000
					CHANNELS 3 Xrotation Yrotation Zrotation
					JOINT mixamorig:RightToe_End
					{
						OFFSET 0.000299 0.001700 19.918200
						CHANNELS 3 Xrotation Yrotation Zrotation
						End Site
						{
							OFFSET 0.000000 19.918203 0.000000
						}
					}
				}
			}
		}
	}
}
MOTION
Frames: 4
Frame Time: 0.033333
128.708054 182.837234 10.528795 -7.894593 -22.477721 -0.708662 25.583165 -7.690050 5.831295 2.069433 -1.674542 0.378744 2.060820 -1.666204 0.455072 5.579884 1.365771 -4.399568 -25.565552 25.022956 -9.048158 -0.000000 0.000000 0.000000 -0.000000 0.000000 0.000000 -0.000000 0.000000 0.000000 -2.886965 -22.832644 -30.353350 -19.075933 -27.077602 -49.004456 -0.000138 -74.328332 -0.000138 -13.857172 -16.814133 -33.162764 1.886129 7.701127 -23.763145 3.119997 5.176534 -62.134736 3.117431 5.175169 -62.106002 0.000001 -0.000001 0.000001 -7.877854 -8.824934 3.199276 -1.722361 36.031334 12.711952 -6.486316 2.204252 12.992493 0.000001 0.000001 0.000001 -1.738833 -1.300419 -21.124686 2.364573 4.701775 -53.377488 2.359986 4.698350 -53.321286 0.000001 -0.000001 -0.000002 3.881173 9.306949 -37.317780 2.591729 4.861825 -56.102047 2.595334 4.864190 -56.144319 -0.000001 0.000001 0.000001 6.091347 11.303923 -41.651614 3.496168 5.357746 -66.230309 3.486631 5.353584 -66.128211 0.000000 0.000001 0.000001 0.343400 17.992175 11.765052 -16.112053 33.162932 55.487552 0.002463 95.203965 -0.002467 25.660553 23.811776 -29.583841 2.556135 -7.542905 32.629084 2.485497 -4.120817 62.178634 2.482000 -4.118977 62.130672 -0.000001 -0.000000 -0.000000 -3.031814 -2.946573 -10.087969 7.805693 -20.684965 -3.215196 0.772586 -20.385606 -15.709102 0.000001 0.000000 -0.000005 -1.237594 1.120137 17.554771 1.810347 -3.687258 52.287482 1.810339 -3.687271 52.287468 0.000001 -0.000001 -0.000002 0.820770 -4.870745 29.627878 3.030574 -4.364473 69.537008 3.043564 -4.369232 69.707306 -0.000000 -0.000003 0.000003 5.366967 -10.422103 39.182920 2.476691 -4.116176 62.056551 2.476701 -4.116167 62.056558 0.000001 0.000000 -0.000002 -2.443150 6.593559 3.347678 47.646423 -8.050345 6.190533 -26.027723 -2.731193 -3.998787 -15.358117 0.000009 -0.000001 -0.000000 -0.000001 -0.000000 -28.092155 10.100414 -16.101408 52.579449 -8.996591 -9.984198 16.569909 -3.680231 0.004400 -19.625597 -2.517926 13.658427 0.000001 0.000000 -0.000001 
133.753464 182.880936 9.796051 -9.539557 -17.202200 -0.538255 26.324509 -6.851160 5.501277 1.964719 -1.539039 -0.019623 1.950867 -1.541765 0.056653 6.396277 1.094065 -3.823256 -24.422619 20.845884 -9.290218 0.000000 0.000001 0.000000 0.000000 0.000001 0.000000 0.000000 0.000001 0.000000 -2.402307 -19.045692 -31.644584 -16.314644 -27.025368 -53.810177 -0.000014 -70.379526 -0.000027 -6.807804 -18.885137 -28.954688 1.831533 7.521902 -24.192781 3.258079 5.246914 -63.654330 3.255393 5.245576 -63.624926 0.000001 -0.000001 0.000004 -7.132718 -6.657668 2.215199 -2.240097 34.867723 12.770332 -6.276844 2.769590 12.963689 0.000002 0.000001 -0.000001 -1.804522 -1.189840 -22.064151 2.479730 4.784921 -54.770003 2.474708 4.781374 -54.709730 0.000000 0.000000 0.000001 3.887547 9.445748 -36.289645 2.567707 4.845644 -55.817867 2.571526 4.848212 -55.863147 0.000000 -0.000000 -0.000001 6.107509 11.280795 -41.885186 3.369795 5.300546 -64.869810 3.359953 5.295968 -64.763259 0.000000 -0.000001 0.000003 0.432383 18.552783 11.098491 -17.111321 29.888303 62.164448 -0.001097 90.354981 0.001108 28.444931 22.893797 -30.998100 2.699194 -7.506685 35.114781 2.575291 -4.166859 63.421728 2.571840 -4.165104 63.374019 0.000001 0.000000 -0.000002 -2.671339 -3.494461 -9.539844 8.404757 -21.828878 -3.242355 1.046026 -20.997303 -15.743525 0.000001 -0.000000 -0.000002 -1.096409 0.175342 19.540311 1.842956 -3.712202 52.793155 1.842983 -3.712230 52.793172 -0.000003 0.000002 -0.000002 0.545154 -4.394197 30.309425 3.025284 -4.362501 69.467224 3.039563 -4.367772 69.655034 0.000003 0.000001 0.000005 5.153956 -10.037063 39.918559 2.517609 -4.137563 62.624987 2.517612 -4.137565 62.624987 -0.000004 -0.000001 0.000001 -2.048606 4.026538 0.770601 48.375378 -8.053905 7.734359 -27.409997 -3.141868 -3.109036 -14.318178 0.000005 0.000000 -0.000000 -0.000002 -0.000000 -28.424208 13.794794 -12.070036 59.273966 -8.698308 -9.886694 16.255010 -6.147952 -2.021003 -14.605864 -2.445857 13.602540 -0.000000 0.000002 -0.000002 
136.288162 185.481537 9.723713 -9.849599 -10.717971 0.122861 25.761971 -6.094861 4.720517 1.917060 -1.369974 -0.096824 1.905077 -1.374697 -0.029269 6.722024 0.898439 -3.806550 -23.365742 15.701128 -10.038791 -0.000000 -0.000000 -0.000001 -0.000000 -0.000000 -0.000001 -0.000000 -0.000000 -0.000001 -1.642378 -15.004640 -31.829604 -10.702163 -25.777189 -55.551865 -0.000048 -65.439380 -0.000049 -1.452625 -21.123873 -26.994654 1.819405 7.473880 -24.364562 3.303208 5.268927 -64.147012 3.300423 5.267587 -64.116536 0.000002 0.000000 0.000000 -5.497143 -2.724153 0.606365 -2.470537 34.766301 12.830342 -6.102704 3.235511 12.938832 -0.000002 -0.000003 -0.000002 -1.822888 -0.824230 -23.527538 2.532264 4.821451 -55.397328 2.526987 4.817824 -55.334562 -0.000000 -0.000000 -0.000001 4.131476 9.784304 -36.213219 2.480346 4.785364 -54.777267 2.484542 4.788294 -54.827421 -0.000001 -0.000000 -0.000000 6.246701 11.307259 -42.604719 3.042077 5.134740 -61.267022 3.032016 5.129249 -61.154884 0.000000 0.000001 -0.000002 0.466521 18.298271 10.892795 -15.900899 26.716859 65.649504 0.000097 83.665910 -0.000101 28.307275 22.027242 -29.814520 2.898419 -7.612781 36.903092 2.626894 -4.192207 64.129520 2.623290 -4.190453 64.080493 0.000001 0.000001 0.000000 -2.454476 -3.846881 -8.777742 8.727793 -22.440779 -3.253214 1.281116 -21.521098 -15.772208 -0.000002 0.000001 0.000000 -0.967324 -0.463378 20.919355 1.840000 -3.709951 52.747283 1.840009 -3.709970 52.747280 -0.000000 0.000000 -0.000001 0.252094 -3.906504 30.754477 3.002841 -4.354051 69.172010 3.018538 -4.359939 69.378657 -0.000002 0.000001 0.000003 4.844999 -9.604985 40.346942 2.511816 -4.134558 62.544636 2.511802 -4.134550 62.544643 0.000002 0.000004 0.000002 -1.351679 1.911371 -0.450022 45.286890 -8.182915 9.628256 -25.534877 -6.027843 -3.664455 -13.249606 0.000001 -0.000000 0.000000 -0.000000 0.000000 -29.040404 13.903080 -6.510173 64.011925 -9.279867 -9.906873 11.882758 -6.748122 -0.453193 -8.457667 -1.581191 11.350214 0.000002 0.000002 -0.000001 
136.966858 190.163940 10.024782 -9.045443 -2.332483 1.066936 24.641914 -6.189089 3.599909 1.823356 -1.320003 0.036445 1.817387 -1.318260 0.099202 6.670432 0.720069 -3.816046 -23.154654 9.688024 -9.957921 0.000000 0.000000 -0.000001 0.000000 0.000000 -0.000001 0.000000 0.000000 -0.000001 -0.965331 -12.197990 -30.157590 -6.013978 -22.499053 -56.395684 -0.000031 -58.858499 -0.000049 3.328454 -20.728009 -25.023351 1.731629 7.412161 -23.304223 3.315027 5.274604 -64.275509 3.312088 5.273208 -64.243762 -0.000001 -0.000001 0.000004 -3.970473 0.434700 -0.856748 -3.152926 33.430450 12.953041 -6.044139 3.391947 12.930165 -0.000001 -0.000001 -0.000001 -1.846281 -0.850705 -23.636718 2.511708 4.807264 -55.152511 2.505950 4.803284 -55.083806 -0.000001 -0.000000 -0.000002 4.176003 10.122231 -34.415134 2.351286 4.691897 -53.215086 2.355866 4.695308 -53.271220 -0.000000 -0.000000 0.000003 6.303162 11.406817 -42.384049 2.234993 4.602940 -51.779811 2.225485 4.595466 -51.661328 -0.000001 -0.000001 0.000003 0.462156 16.644425 11.069068 -14.889280 23.383923 67.473656 0.000023 74.329001 -0.000035 25.485888 21.918487 -22.740352 3.012024 -7.627247 38.375370 2.653989 -4.205218 64.499812 2.650368 -4.203476 64.450444 -0.000001 -0.000000 -0.000000 -2.174674 -4.275684 -7.863664 8.987326 -22.930159 -3.259830 1.598679 -22.225473 -15.809480 0.000000 -0.000004 0.000001 -0.832725 -0.979956 21.914770 1.804454 -3.682700 52.195834 1.804449 -3.682727 52.195862 -0.000000 -0.000004 -0.000002 -0.032462 -3.429724 30.782887 2.969651 -4.341311 68.734092 2.986765 -4.347878 68.960185 0.000001 0.000002 0.000001 4.564319 -9.308603 40.126610 2.481238 -4.118578 62.119758 2.481229 -4.118564 62.119744 -0.000002 0.000000 0.000001 -1.696734 0.711286 0.671205 39.861575 -8.558135 10.167758 -20.056391 -13.525726 -4.436366 -12.744430 -0.000001 0.000002 -0.000000 -0.000001 -0.000000 -29.620420 10.049466 -1.013938 63.939696 -9.796313 -9.925963 10.329399 -7.830460 2.123393 -6.772643 -1.121407 9.810042 -0.000003 0.000001 0.000001 
